<svg width="23" height="59" viewBox="0 0 23 59" fill="none" xmlns="http://www.w3.org/2000/svg">
<path d="M3.173 8.9H11.812C14.8153 8.9 17.006 9.60666 18.384 11.02C19.762 12.398 20.451 14.5357 20.451 17.433V19.712C20.451 23.5633 19.179 26.0013 16.635 27.026V27.132C18.0483 27.556 19.0377 28.4217 19.603 29.729C20.2037 31.0363 20.504 32.7853 20.504 34.976V41.495C20.504 42.555 20.5393 43.4207 20.61 44.092C20.6807 44.728 20.8573 45.364 21.14 46H15.204C14.992 45.3993 14.8507 44.834 14.78 44.304C14.7093 43.774 14.674 42.82 14.674 41.442V34.658C14.674 32.962 14.3913 31.7783 13.826 31.107C13.296 30.4357 12.3597 30.1 11.017 30.1H9.003V46H3.173V8.9ZM11.123 24.8C12.289 24.8 13.1547 24.4997 13.72 23.899C14.3207 23.2983 14.621 22.2913 14.621 20.878V18.016C14.621 16.6733 14.3737 15.7017 13.879 15.101C13.4197 14.5003 12.6777 14.2 11.653 14.2H9.003V24.8H11.123Z" fill="white"/>
<path d="M2.173 7.9H10.812C13.8153 7.9 16.006 8.60666 17.384 10.02C18.762 11.398 19.451 13.5357 19.451 16.433V18.712C19.451 22.5633 18.179 25.0013 15.635 26.026V26.132C17.0483 26.556 18.0377 27.4217 18.603 28.729C19.2037 30.0363 19.504 31.7853 19.504 33.976V40.495C19.504 41.555 19.5393 42.4207 19.61 43.092C19.6807 43.728 19.8573 44.364 20.14 45H14.204C13.992 44.3993 13.8507 43.834 13.78 43.304C13.7093 42.774 13.674 41.82 13.674 40.442V33.658C13.674 31.962 13.3913 30.7783 12.826 30.107C12.296 29.4357 11.3597 29.1 10.017 29.1H8.003V45H2.173V7.9ZM10.123 23.8C11.289 23.8 12.1547 23.4997 12.72 22.899C13.3207 22.2983 13.621 21.2913 13.621 19.878V17.016C13.621 15.6733 13.3737 14.7017 12.879 14.101C12.4197 13.5003 11.6777 13.2 10.653 13.2H8.003V23.8H10.123Z" fill="#333333"/>
</svg>
