<svg width="133" height="63" viewBox="0 0 133 63" fill="none" xmlns="http://www.w3.org/2000/svg">
<path d="M2.173 8.4H10.812C13.8153 8.4 16.006 9.10666 17.384 10.52C18.762 11.898 19.451 14.0357 19.451 16.933V19.212C19.451 23.0633 18.179 25.5013 15.635 26.526V26.632C17.0483 27.056 18.0377 27.9217 18.603 29.229C19.2037 30.5363 19.504 32.2853 19.504 34.476V40.995C19.504 42.055 19.5393 42.9207 19.61 43.592C19.6807 44.228 19.8573 44.864 20.14 45.5H14.204C13.992 44.8993 13.8507 44.334 13.78 43.804C13.7093 43.274 13.674 42.32 13.674 40.942V34.158C13.674 32.462 13.3913 31.2783 12.826 30.607C12.296 29.9357 11.3597 29.6 10.017 29.6H8.003V45.5H2.173V8.4ZM10.123 24.3C11.289 24.3 12.1547 23.9997 12.72 23.399C13.3207 22.7983 13.621 21.7913 13.621 20.378V17.516C13.621 16.1733 13.3737 15.2017 12.879 14.601C12.4197 14.0003 11.6777 13.7 10.653 13.7H8.003V24.3H10.123ZM21.9219 8.4H37.8219V13.7H27.7519V23.505H35.7549V28.805H27.7519V40.2H37.8219V45.5H21.9219V8.4ZM39.5487 8.4H48.4527C51.35 8.4 53.523 9.17733 54.9717 10.732C56.4204 12.2867 57.1447 14.5657 57.1447 17.569V36.331C57.1447 39.3343 56.4204 41.6133 54.9717 43.168C53.523 44.7227 51.35 45.5 48.4527 45.5H39.5487V8.4ZM48.3467 40.2C49.3007 40.2 50.025 39.9173 50.5197 39.352C51.0497 38.7867 51.3147 37.868 51.3147 36.596V17.304C51.3147 16.032 51.0497 15.1133 50.5197 14.548C50.025 13.9827 49.3007 13.7 48.3467 13.7H45.3787V40.2H48.3467ZM59.4528 8.4H67.7738L71.4838 34.953H71.5898L75.2998 8.4H83.6208V45.5H78.1088V17.41H78.0028L73.7628 45.5H68.8868L64.6468 17.41H64.5408V45.5H59.4528V8.4ZM86.3443 8.4H92.1743V45.5H86.3443V8.4ZM102.492 46.03C99.6658 46.03 97.5281 45.235 96.0795 43.645C94.6308 42.0197 93.9065 39.7053 93.9065 36.702V34.582H99.4185V37.126C99.4185 39.5287 100.425 40.73 102.439 40.73C103.429 40.73 104.171 40.4473 104.665 39.882C105.195 39.2813 105.46 38.3273 105.46 37.02C105.46 35.4653 105.107 34.105 104.4 32.939C103.694 31.7377 102.386 30.3067 100.478 28.646C98.0758 26.526 96.3975 24.618 95.4435 22.922C94.4895 21.1907 94.0125 19.2473 94.0125 17.092C94.0125 14.1593 94.7545 11.898 96.2385 10.308C97.7225 8.68266 99.8778 7.87 102.704 7.87C105.496 7.87 107.598 8.68266 109.011 10.308C110.46 11.898 111.184 14.1947 111.184 17.198V18.735H105.672V16.827C105.672 15.555 105.425 14.6363 104.93 14.071C104.436 13.4703 103.711 13.17 102.757 13.17C100.814 13.17 99.8425 14.3537 99.8425 16.721C99.8425 18.0637 100.196 19.318 100.902 20.484C101.644 21.65 102.969 23.0633 104.877 24.724C107.315 26.844 108.994 28.7697 109.912 30.501C110.831 32.2323 111.29 34.264 111.29 36.596C111.29 39.6347 110.531 41.9667 109.011 43.592C107.527 45.2173 105.354 46.03 102.492 46.03ZM121.433 46.03C118.571 46.03 116.38 45.2173 114.861 43.592C113.342 41.9667 112.582 39.67 112.582 36.702V17.198C112.582 14.23 113.342 11.9333 114.861 10.308C116.38 8.68266 118.571 7.87 121.433 7.87C124.295 7.87 126.486 8.68266 128.005 10.308C129.524 11.9333 130.284 14.23 130.284 17.198V36.702C130.284 39.67 129.524 41.9667 128.005 43.592C126.486 45.2173 124.295 46.03 121.433 46.03ZM121.433 40.73C123.447 40.73 124.454 39.511 124.454 37.073V16.827C124.454 14.389 123.447 13.17 121.433 13.17C119.419 13.17 118.412 14.389 118.412 16.827V37.073C118.412 39.511 119.419 40.73 121.433 40.73Z" fill="#333333"/>
<path d="M4 61.5L10.0885 56.5318C10.8245 55.9312 11.8814 55.9312 12.6174 56.5318L17.4414 60.4682C18.1774 61.0688 19.2343 61.0688 19.9703 60.4682L24.7944 56.5318C25.5304 55.9312 26.5873 55.9312 27.3233 56.5318L32.1473 60.4682C32.8833 61.0688 33.9402 61.0688 34.6762 60.4682L39.5003 56.5318C40.2363 55.9312 41.2932 55.9312 42.0292 56.5318L46.8532 60.4682C47.5892 61.0688 48.6461 61.0688 49.3821 60.4682L54.2061 56.5318C54.9421 55.9312 55.999 55.9312 56.735 56.5318L61.5591 60.4682C62.2951 61.0688 63.352 61.0688 64.088 60.4682L68.912 56.5318C69.648 55.9312 70.7049 55.9312 71.4409 56.5318L76.265 60.4682C77.001 61.0688 78.0579 61.0688 78.7939 60.4682L83.6179 56.5318C84.3539 55.9312 85.4108 55.9312 86.1468 56.5318L90.9708 60.4682C91.7068 61.0688 92.7637 61.0688 93.4997 60.4682L98.3238 56.5318C99.0598 55.9312 100.117 55.9312 100.853 56.5318L105.677 60.4682C106.413 61.0688 107.47 61.0688 108.206 60.4682L113.03 56.5318C113.766 55.9312 114.823 55.9312 115.559 56.5318L120.383 60.4682C121.119 61.0688 122.176 61.0688 122.912 60.4682L129 55.5" stroke="#EE4628" stroke-width="3" stroke-linecap="round"/>
</svg>
